<svg width="1502" height="1502" viewBox="0 0 1502 1502" fill="none" xmlns="http://www.w3.org/2000/svg">
<circle cx="750.719" cy="750.719" r="750.359" fill="#2E3845"/>
<path d="M379.571 996.356L379.36 996.548C378.576 997.266 377.889 998.084 377.319 998.981L377.006 999.472C375.656 1001.59 375.11 1004.13 375.465 1006.62C375.641 1007.84 376.031 1009.03 376.619 1010.12L379.811 1016.05L384.571 1023.73C385.826 1025.76 387.234 1027.68 388.782 1029.49L394.261 1035.9C395.972 1037.89 397.849 1039.75 399.872 1041.43L408.607 1048.69L420.032 1055.8L428.426 1060.12L441.367 1065.13L454.191 1068.63L466.548 1070.84L478.906 1072.36H493.363L502.806 1071.89L514.814 1070.03L527.521 1067.23L537.081 1064.2L546.175 1060.47L559.931 1053.01L569.608 1046.48L580.567 1036.8L588.611 1027.59L596.189 1016.05L600.736 1006.72L605.282 993.433L607.497 982.707L608.78 970.582V953.212L608.579 951.602C607.732 944.83 604.421 938.608 599.278 934.122C597.921 932.939 596.453 931.89 594.893 930.992L581.228 923.117C578.155 921.346 574.889 919.931 571.494 918.9L558.021 914.809C555.568 914.064 553.058 913.523 550.516 913.191L542.8 912.182C538.618 911.635 534.382 911.658 530.206 912.251L524.67 913.036C521.604 913.471 518.59 914.21 515.67 915.242L506.157 918.607C502.692 919.832 499.383 921.464 496.3 923.466L489.072 928.163C484.81 930.931 481.03 934.377 477.881 938.365L452.826 970.09C451.097 972.279 449.175 974.309 447.083 976.154L441.647 980.951C433.127 988.468 422.156 992.617 410.794 992.617H389.198C385.634 992.617 382.2 993.951 379.571 996.356Z" fill="white"/>
<path d="M624.996 894.409L620.749 892.144C619.124 891.277 618.273 889.435 618.667 887.636C618.766 887.181 618.943 886.745 619.188 886.349L626.978 873.774L640.269 853.605L656.357 830.638L676.759 804.057L697.161 778.875L719.312 753.46L756.618 713.006L800.104 669.87L848.02 626.501L883.344 596.19L917.736 567.977L965.885 530.204L1007.74 499.426L1052.51 467.832L1085.27 445.798L1100.42 436.121L1107.42 431.458L1109.75 430.175C1111.14 429.636 1112.61 429.359 1114.1 429.359H1114.88L1115.08 429.382C1116.34 429.522 1117.56 429.855 1118.71 430.371L1118.86 430.435C1119.85 430.881 1120.78 431.472 1121.6 432.188L1121.66 432.244C1122.57 433.035 1123.34 433.976 1123.94 435.027L1123.98 435.105C1124.36 435.78 1124.66 436.498 1124.88 437.244C1125.13 438.123 1125.25 439.033 1125.25 439.948V440.229C1125.25 441.063 1125.16 441.9 1124.99 442.716C1124.7 444.056 1124.19 445.344 1123.46 446.51L1123.04 447.197L1103.1 477.625L1085.62 503.739L1062.77 535.567L1037 571.707L1006.11 611.928L985.937 637.81L964.136 664.391L940.004 693.187L914.822 721.283L883.577 755.092L852.799 786.92L827.151 811.519L798.005 838.333L755.569 874.007L719.312 901.521L685.736 924.254L655.602 942.577C654.86 943.029 653.909 942.494 653.909 941.625V933.464L653.442 926.703L652.72 921.431C652.427 919.287 651.774 917.208 650.79 915.28C649.92 913.578 648.803 912.014 647.474 910.641L645.981 909.099L636.072 901.288L624.996 894.409Z" fill="white"/>
</svg>
