<svg width="1500" height="1500" viewBox="0 0 1500 1500" fill="none" xmlns="http://www.w3.org/2000/svg">
<circle cx="749.641" cy="750" r="681.5" fill="#2E3845"/>
<path d="M295.538 1051.09L295.268 1051.34C294.263 1052.26 293.383 1053.3 292.652 1054.45L292.251 1055.08C290.521 1057.8 289.821 1061.05 290.276 1064.24C290.501 1065.81 291.001 1067.33 291.754 1068.73L295.846 1076.33L301.947 1086.18C303.555 1088.77 305.359 1091.24 307.344 1093.56L314.365 1101.77C316.558 1104.33 318.964 1106.7 321.558 1108.86L332.752 1118.17L347.395 1127.28L358.153 1132.81L374.739 1139.24L391.175 1143.72L407.013 1146.56L422.852 1148.5H441.38L453.482 1147.9L468.873 1145.51L485.159 1141.93L497.412 1138.04L509.066 1133.26L526.698 1123.7L539.099 1115.33L553.145 1102.93L563.455 1091.12L573.167 1076.33L578.994 1064.38L584.822 1047.34L587.661 1033.6L589.304 1018.06V995.794L589.046 993.731C587.961 985.052 583.718 977.077 577.126 971.328C575.387 969.812 573.505 968.468 571.506 967.316L553.993 957.224C550.054 954.954 545.868 953.14 541.517 951.819L524.25 946.576C521.106 945.621 517.888 944.927 514.63 944.501L504.741 943.208C499.381 942.508 493.952 942.537 488.6 943.297L481.505 944.303C477.576 944.86 473.712 945.808 469.971 947.131L457.778 951.443C453.336 953.014 449.096 955.104 445.145 957.671L435.88 963.69C430.419 967.238 425.574 971.655 421.538 976.766L389.425 1017.43C387.209 1020.23 384.746 1022.83 382.065 1025.2L375.098 1031.35C364.179 1040.98 350.117 1046.3 335.555 1046.3H307.876C303.309 1046.3 298.908 1048.01 295.538 1051.09Z" fill="white"/>
<path d="M566.443 947.532L561 944.629C558.917 943.518 557.826 941.157 558.331 938.851C558.459 938.267 558.685 937.709 558.999 937.201L568.983 921.085L586.017 895.235L606.637 865.8L632.785 831.732L658.933 799.458L687.323 766.884L735.137 715.036L790.87 659.751L852.281 604.167L897.555 565.318L941.634 529.159L1003.34 480.747L1056.99 441.301L1114.36 400.808L1156.35 372.568L1175.77 360.166L1184.74 354.19L1187.73 352.546C1189.5 351.855 1191.39 351.5 1193.3 351.5H1194.3L1194.57 351.529C1196.17 351.708 1197.74 352.136 1199.22 352.797L1199.4 352.879C1200.68 353.451 1201.86 354.207 1202.91 355.125L1203 355.197C1204.16 356.211 1205.15 357.417 1205.91 358.763L1205.97 358.863C1206.46 359.729 1206.84 360.649 1207.11 361.605C1207.44 362.732 1207.6 363.899 1207.6 365.071V365.431C1207.6 366.5 1207.49 367.572 1207.26 368.618C1206.89 370.336 1206.23 371.987 1205.31 373.481L1204.76 374.361L1179.21 413.359L1156.8 446.829L1127.51 487.621L1094.49 533.94L1054.89 585.49L1029.04 618.661L1001.1 652.728L970.173 689.635L937.898 725.645L897.854 768.976L858.408 809.768L825.535 841.295L788.181 875.661L733.792 921.383L687.323 956.646L644.29 985.783L605.669 1009.27C604.718 1009.85 603.499 1009.16 603.499 1008.05V997.587L602.901 988.921L601.976 982.165C601.599 979.417 600.763 976.752 599.501 974.281C598.387 972.1 596.955 970.096 595.251 968.335L593.339 966.358L580.638 956.347L566.443 947.532Z" fill="white"/>
</svg>
