<svg width="1519" height="1510" viewBox="0 0 1519 1510" fill="none" xmlns="http://www.w3.org/2000/svg">
<path d="M390.083 0.0175781C397.896 0.0175781 405.624 1.65035 412.769 4.81152L418.458 7.3291C436.591 15.3516 451.372 29.426 460.271 47.1445L540.938 207.748L541.021 207.922C541.048 207.981 541.074 208.04 541.098 208.1L606.679 371.31C606.682 371.317 606.685 371.326 606.688 371.333L627.521 423.979C653.917 490.678 673.53 559.864 686.068 630.487C697.247 629.84 708.538 629.509 719.933 629.509C731.227 629.509 742.44 629.787 753.562 630.332C788.173 548.158 832.429 470.363 885.399 398.588L913.382 360.671C913.387 360.664 913.392 360.656 913.397 360.649L1029.17 205.612C1029.22 205.557 1029.26 205.503 1029.3 205.449L1029.44 205.294L1160.07 59.4619C1176.11 41.5613 1197.81 29.7143 1221.54 25.9141L1227 25.0391C1236.46 23.5249 1246.11 23.8167 1255.45 25.8984C1282.81 31.9977 1304.52 52.7251 1311.86 79.7549L1328.57 141.244C1331.55 152.211 1333.49 163.435 1334.37 174.769L1342.45 279.407C1342.47 279.611 1342.47 279.817 1342.46 280.021L1337.33 371.778C1328.26 534.138 1297.88 694.64 1246.95 849.159L1226.31 911.797C1247.23 957.572 1258.64 1006.98 1258.64 1058.52C1258.64 1295.46 1004.8 1454.89 705.44 1468.88C406.078 1482.87 195.279 1328.1 195.279 1091.16C195.279 1024.49 213.266 958.778 245.746 898.773C215.183 809.575 199.58 715.929 199.58 621.626V615.181C199.58 540.701 208.894 466.514 227.306 394.347L274.674 208.681C274.712 208.531 274.758 208.383 274.812 208.237L337.419 36.8477C345.498 14.7303 366.536 0.0176925 390.083 0.0175781Z" fill="#202936"/>
<path d="M390.083 0.0175781C397.896 0.0175781 405.624 1.65035 412.769 4.81152L418.458 7.3291C436.591 15.3516 451.372 29.426 460.271 47.1445L540.938 207.748L541.021 207.922C541.048 207.981 541.074 208.04 541.098 208.1L606.679 371.31C606.682 371.317 606.685 371.326 606.688 371.333L627.521 423.979C653.917 490.678 673.53 559.864 686.068 630.487C697.247 629.84 708.538 629.509 719.933 629.509C731.227 629.509 742.44 629.787 753.562 630.332C788.173 548.158 832.429 470.363 885.399 398.588L913.382 360.671C913.387 360.664 913.392 360.656 913.397 360.649L1029.17 205.612C1029.22 205.557 1029.26 205.503 1029.3 205.449L1029.44 205.294L1160.07 59.4619C1176.11 41.5613 1197.81 29.7143 1221.54 25.9141L1227 25.0391C1236.46 23.5249 1246.11 23.8167 1255.45 25.8984C1282.81 31.9977 1304.52 52.7251 1311.86 79.7549L1328.57 141.244C1331.55 152.211 1333.49 163.435 1334.37 174.769L1342.45 279.407C1342.47 279.611 1342.47 279.817 1342.46 280.021L1337.33 371.778C1328.26 534.138 1297.88 694.64 1246.95 849.159L1226.31 911.797C1247.23 957.572 1258.64 1006.98 1258.64 1058.52C1258.64 1295.46 1004.8 1454.89 705.44 1468.88C406.078 1482.87 195.279 1328.1 195.279 1091.16C195.279 1024.49 213.266 958.778 245.746 898.773C215.183 809.575 199.58 715.929 199.58 621.626V615.181C199.58 540.701 208.894 466.514 227.306 394.347L274.674 208.681C274.712 208.531 274.758 208.383 274.812 208.237L337.419 36.8477C345.498 14.7303 366.536 0.0176925 390.083 0.0175781Z" fill="#2E3845"/>
<path d="M564.912 937.276C564.912 1035.14 512.48 1114.48 447.801 1114.48C383.123 1114.48 297.9 1035.14 297.9 937.276C297.9 839.411 383.123 760.076 447.801 760.076C512.48 760.076 564.912 839.411 564.912 937.276Z" fill="#F3F4F6"/>
<path d="M1075.51 941.939C1075.51 1021.78 1047.4 1091.16 934.978 1109.81C841.29 1119.14 780.393 1063.74 780.393 983.907C780.393 839.35 860.931 778.729 925.609 778.729C990.287 778.729 1075.51 862.102 1075.51 941.939Z" fill="#F3F4F6"/>
<ellipse cx="480.592" cy="909.296" rx="37.4753" ry="74.6105" fill="#2E3845"/>
<ellipse cx="892.817" cy="927.95" rx="37.4753" ry="74.6105" fill="#2E3845"/>
<path d="M9.25977 1199.73C114.378 1158.33 271.205 1152.78 383.097 1162.56" stroke="#2E3845" stroke-width="18.5163" stroke-linecap="round"/>
<path d="M31.0703 1361.72C112.85 1278.91 307.207 1246.35 420.358 1231.98" stroke="#2E3845" stroke-width="18.5163" stroke-linecap="round"/>
<path d="M146.715 1499.98C159.735 1436.93 334.19 1323.91 401.325 1300.24" stroke="#2E3845" stroke-width="18.5163" stroke-linecap="round"/>
<path d="M1134.98 1124.77C1135.54 1124.77 1145.65 1121.7 1172.21 1113.83C1188.89 1108.88 1212.25 1102.56 1225.49 1099.08C1238.73 1095.59 1241.19 1095.27 1268.65 1090.37C1296.11 1085.46 1348.5 1075.99 1378.35 1070.91C1413.82 1064.89 1423.59 1064.31 1441.16 1061.87C1454.93 1060.18 1478.57 1057.58 1491.79 1056.17C1505.02 1054.76 1507.11 1054.62 1509.26 1054.47" stroke="#2E3845" stroke-width="18.5163" stroke-linecap="round"/>
<path d="M1120.38 1202.75C1225.48 1202.75 1322.92 1214.52 1420.17 1258.32" stroke="#2E3845" stroke-width="18.5163" stroke-linecap="round"/>
<path d="M1333.15 1403.59C1264.77 1355.21 1164.95 1316.24 1089.56 1291.68" stroke="#2E3845" stroke-width="18.5163" stroke-linecap="round"/>
<path d="M651.713 1155.98C655.831 1160.95 663.452 1160.95 667.569 1155.98L704.318 1111.62C709.879 1104.91 705.106 1094.76 696.39 1094.76H622.893C614.177 1094.76 609.404 1104.91 614.964 1111.62L651.713 1155.98Z" fill="#F3F4F6"/>
</svg>
