<svg width="1502" height="1502" viewBox="0 0 1502 1502" fill="none" xmlns="http://www.w3.org/2000/svg">
<path d="M8.53634 1237.75L8.10986 1238.14C6.5198 1239.6 5.12829 1241.26 3.97126 1243.07L3.33837 1244.07C0.601786 1248.37 -0.506199 1253.51 0.214658 1258.55C0.569943 1261.04 1.36131 1263.44 2.55236 1265.66L9.02277 1277.67L18.673 1293.25C21.2157 1297.35 24.0692 1301.25 27.2083 1304.92L38.3128 1317.9C41.7812 1321.95 45.5864 1325.7 49.6877 1329.12L67.3925 1343.84L90.5513 1358.25L107.566 1367L133.797 1377.16L159.791 1384.25L184.841 1388.74L209.89 1391.81H239.193L258.335 1390.87L282.675 1387.09L308.433 1381.41L327.811 1375.27L346.244 1367.71L374.129 1352.58L393.743 1339.35L415.956 1319.74L432.262 1301.07L447.623 1277.67L456.839 1258.77L466.055 1231.83L470.545 1210.09L473.145 1185.51V1150.3L472.737 1147.03C471.021 1133.31 464.31 1120.7 453.885 1111.6C451.134 1109.21 448.157 1107.08 444.995 1105.26L417.298 1089.3C411.067 1085.71 404.448 1082.84 397.567 1080.75L370.257 1072.46C365.285 1070.95 360.196 1069.85 355.043 1069.18L339.403 1067.13C330.926 1066.02 322.339 1066.07 313.875 1067.27L302.653 1068.86C296.439 1069.74 290.329 1071.24 284.411 1073.33L265.128 1080.15C258.103 1082.64 251.396 1085.94 245.148 1090L230.495 1099.52C221.858 1105.14 214.196 1112.12 207.812 1120.2L157.024 1184.51C153.52 1188.95 149.624 1193.06 145.384 1196.8L134.366 1206.53C117.096 1221.76 94.8567 1230.17 71.8253 1230.17H28.0502C20.827 1230.17 13.8656 1232.88 8.53634 1237.75Z" fill="#2E3845"/>
<path d="M485.974 1052.66L477.366 1048.07C474.071 1046.31 472.347 1042.58 473.145 1038.93C473.346 1038.01 473.704 1037.12 474.202 1036.32L489.992 1010.83L516.932 969.949L549.543 923.395L590.898 869.515L632.253 818.471L677.153 766.955L752.773 684.953L840.919 597.517L938.044 509.608L1009.65 448.166L1079.36 390.978L1176.96 314.412L1261.79 252.025L1352.54 187.984L1418.94 143.321L1449.67 123.706L1463.84 114.254L1468.57 111.654C1471.38 110.561 1474.37 110 1477.39 110H1478.97L1479.39 110.047C1481.93 110.329 1484.41 111.005 1486.74 112.051L1487.03 112.181C1489.05 113.085 1490.92 114.282 1492.59 115.733L1492.72 115.847C1494.57 117.451 1496.12 119.359 1497.33 121.488L1497.42 121.646C1498.19 123.015 1498.8 124.47 1499.23 125.982C1499.74 127.765 1500 129.61 1500 131.463V132.033C1500 133.724 1499.82 135.419 1499.47 137.073C1498.88 139.791 1497.83 142.402 1496.37 144.765L1495.51 146.156L1455.1 207.834L1419.65 260.769L1373.34 325.283L1321.11 398.54L1258.49 480.069L1217.6 532.531L1173.41 586.41L1124.5 644.78L1073.45 701.732L1010.12 770.263L947.733 834.777L895.744 884.639L836.665 938.992L750.647 1011.3L677.153 1067.07L609.094 1113.16L548.013 1150.3C546.508 1151.21 544.58 1150.13 544.58 1148.37V1131.82L543.635 1118.12L542.171 1107.43C541.576 1103.09 540.253 1098.87 538.258 1094.96C536.496 1091.51 534.231 1088.35 531.536 1085.56L528.511 1082.43L508.424 1066.6L485.974 1052.66Z" fill="#2E3845"/>
</svg>
