<svg width="1500" height="1500" viewBox="0 0 1500 1500" fill="none" xmlns="http://www.w3.org/2000/svg">
<path d="M414.344 65.0332C421.469 65.0333 428.515 66.5283 435.025 69.4219L440.222 71.7314C456.694 79.0526 470.11 91.8722 478.172 107.995L551.562 254.774L551.706 255.098L611.329 404.156L611.338 404.177L630.261 452.213C654.27 513.16 672.107 576.36 683.507 640.862C693.654 640.273 703.902 639.972 714.244 639.972C724.495 639.972 734.673 640.225 744.768 640.722C776.237 565.666 816.484 494.598 864.672 429.005L890.073 394.429L890.088 394.409L995.345 252.816C995.382 252.766 995.422 252.716 995.462 252.667L995.585 252.523L1114.43 119.247C1128.96 102.951 1148.67 92.159 1170.22 88.6904L1175.22 87.8877C1183.83 86.5026 1192.62 86.7694 1201.13 88.6748C1226.01 94.2459 1245.75 113.142 1252.41 137.752L1267.65 194.109C1270.35 204.086 1272.1 214.294 1272.9 224.599L1280.25 320.235C1280.26 320.329 1280.26 320.423 1280.26 320.517L1280.26 320.798L1275.64 403.805C1267.37 552.62 1239.65 699.711 1193.19 841.33L1174.64 897.851C1193.64 939.638 1204.01 984.742 1204.01 1031.78C1204.01 1248.17 973.232 1393.78 701.068 1406.56C428.904 1419.33 237.258 1277.98 237.258 1061.59C237.258 1000.72 253.599 940.731 283.109 885.944C255.309 804.459 241.118 718.944 241.118 632.835V626.879C241.118 558.859 249.588 491.103 266.331 425.176L309.39 255.631C309.425 255.493 309.467 255.357 309.516 255.224L366.486 98.5537C373.804 78.4296 392.93 65.0332 414.344 65.0332Z" fill="#202936"/>
<path d="M414.344 65.0332C421.469 65.0333 428.515 66.5283 435.025 69.4219L440.222 71.7314C456.694 79.0526 470.11 91.8722 478.172 107.995L551.562 254.774L551.706 255.098L611.329 404.156L611.338 404.177L630.261 452.213C654.27 513.16 672.107 576.36 683.507 640.862C693.654 640.273 703.902 639.972 714.244 639.972C724.495 639.972 734.673 640.225 744.768 640.722C776.237 565.666 816.484 494.598 864.672 429.005L890.073 394.429L890.088 394.409L995.345 252.816C995.382 252.766 995.422 252.716 995.462 252.667L995.585 252.523L1114.43 119.247C1128.96 102.951 1148.67 92.159 1170.22 88.6904L1175.22 87.8877C1183.83 86.5026 1192.62 86.7694 1201.13 88.6748C1226.01 94.2459 1245.75 113.142 1252.41 137.752L1267.65 194.109C1270.35 204.086 1272.1 214.294 1272.9 224.599L1280.25 320.235C1280.26 320.329 1280.26 320.423 1280.26 320.517L1280.26 320.798L1275.64 403.805C1267.37 552.62 1239.65 699.711 1193.19 841.33L1174.64 897.851C1193.64 939.638 1204.01 984.742 1204.01 1031.78C1204.01 1248.17 973.232 1393.78 701.068 1406.56C428.904 1419.33 237.258 1277.98 237.258 1061.59C237.258 1000.72 253.599 940.731 283.109 885.944C255.309 804.459 241.118 718.944 241.118 632.835V626.879C241.118 558.859 249.588 491.103 266.331 425.176L309.39 255.631C309.425 255.493 309.467 255.357 309.516 255.224L366.486 98.5537C373.804 78.4296 392.93 65.0332 414.344 65.0332Z" fill="#202936"/>
<path d="M414.344 65.0332L414.344 56.5332H414.344V65.0332ZM435.025 69.4219L438.478 61.6545L438.478 61.6544L435.025 69.4219ZM440.222 71.7314L436.769 79.4988L436.769 79.4988L440.222 71.7314ZM478.172 107.995L485.775 104.194V104.194L478.172 107.995ZM551.562 254.774L559.321 251.305C559.271 251.193 559.219 251.083 559.164 250.973L551.562 254.774ZM551.706 255.098L559.598 251.941C559.556 251.836 559.512 251.731 559.466 251.628L551.706 255.098ZM611.329 404.156L603.437 407.313C603.463 407.377 603.489 407.441 603.516 407.505L611.329 404.156ZM611.338 404.177L619.246 401.061C619.216 400.983 619.184 400.906 619.151 400.828L611.338 404.177ZM630.261 452.213L622.352 455.328L622.352 455.328L630.261 452.213ZM683.507 640.862L675.137 642.342C675.887 646.587 679.696 649.598 684 649.348L683.507 640.862ZM714.244 639.972V631.472V639.972ZM744.768 640.722L744.35 649.211C747.923 649.387 751.223 647.307 752.606 644.008L744.768 640.722ZM864.672 429.005L871.522 434.037V434.037L864.672 429.005ZM890.073 394.429L883.273 389.329C883.256 389.351 883.24 389.374 883.223 389.396L890.073 394.429ZM890.088 394.409L896.888 399.509C896.895 399.5 896.902 399.49 896.909 399.48L890.088 394.409ZM995.345 252.816L988.523 247.745V247.745L995.345 252.816ZM995.462 252.667L989.008 247.135C988.962 247.189 988.917 247.243 988.872 247.298L995.462 252.667ZM995.585 252.523L989.241 246.866C989.204 246.908 989.167 246.95 989.131 246.992L995.585 252.523ZM1114.43 119.247L1108.09 113.59L1108.09 113.59L1114.43 119.247ZM1170.22 88.6904L1168.88 80.2982L1168.87 80.2984L1170.22 88.6904ZM1175.22 87.8877L1176.57 96.2799L1176.57 96.2798L1175.22 87.8877ZM1201.13 88.6748L1202.99 80.3802L1202.99 80.3802L1201.13 88.6748ZM1252.41 137.752L1260.61 135.533L1260.61 135.533L1252.41 137.752ZM1267.65 194.109L1259.44 196.328L1259.44 196.329L1267.65 194.109ZM1272.9 224.599L1281.37 223.947V223.947L1272.9 224.599ZM1280.25 320.235L1288.73 319.584V319.583L1280.25 320.235ZM1280.26 320.517L1288.76 320.694C1288.76 320.604 1288.77 320.515 1288.76 320.426L1280.26 320.517ZM1280.26 320.798L1288.75 321.27C1288.75 321.172 1288.75 321.073 1288.76 320.975L1280.26 320.798ZM1275.64 403.805L1284.13 404.277V404.277L1275.64 403.805ZM1193.19 841.33L1201.26 843.98V843.98L1193.19 841.33ZM1174.64 897.851L1166.57 895.201C1165.9 897.227 1166.02 899.428 1166.91 901.369L1174.64 897.851ZM1204.01 1031.78H1212.51H1204.01ZM701.068 1406.56L701.467 1415.05L701.068 1406.56ZM237.258 1061.59H228.758H237.258ZM283.109 885.944L290.593 889.975C291.714 887.893 291.918 885.438 291.154 883.2L283.109 885.944ZM241.118 626.879H232.618H241.118ZM266.331 425.176L274.57 427.268L274.57 427.268L266.331 425.176ZM309.39 255.631L301.151 253.538L301.151 253.539L309.39 255.631ZM309.516 255.224L317.504 258.128L317.504 258.128L309.516 255.224ZM366.486 98.5537L358.498 95.6488L358.498 95.6489L366.486 98.5537ZM414.344 65.0332L414.344 73.5332C420.279 73.5333 426.149 74.7788 431.573 77.1893L435.025 69.4219L438.478 61.6544C430.88 58.2778 422.658 56.5333 414.344 56.5332L414.344 65.0332ZM435.025 69.4219L431.573 77.1892L436.769 79.4988L440.222 71.7314L443.674 63.9641L438.478 61.6545L435.025 69.4219ZM440.222 71.7314L436.769 79.4988C451.44 86.0193 463.39 97.437 470.569 111.796L478.172 107.995L485.775 104.194C476.831 86.3074 461.948 72.0858 443.674 63.9641L440.222 71.7314ZM478.172 107.995L470.569 111.796L543.959 258.576L551.562 254.774L559.164 250.973L485.775 104.194L478.172 107.995ZM551.562 254.774L543.802 258.244L543.946 258.567L551.706 255.098L559.466 251.628L559.321 251.305L551.562 254.774ZM551.706 255.098L543.814 258.254L603.437 407.313L611.329 404.156L619.221 400.999L559.598 251.941L551.706 255.098ZM611.329 404.156L603.516 407.505L603.525 407.525L611.338 404.177L619.151 400.828L619.142 400.808L611.329 404.156ZM611.338 404.177L603.429 407.292L622.352 455.328L630.261 452.213L638.169 449.098L619.246 401.061L611.338 404.177ZM630.261 452.213L622.352 455.328C646.154 515.747 663.836 578.399 675.137 642.342L683.507 640.862L691.877 639.383C680.379 574.322 662.387 510.574 638.169 449.097L630.261 452.213ZM683.507 640.862L684 649.348C693.983 648.768 704.067 648.472 714.244 648.472V639.972V631.472C703.737 631.472 693.324 631.778 683.014 632.377L683.507 640.862ZM714.244 639.972V648.472C724.355 648.472 734.393 648.722 744.35 649.211L744.768 640.722L745.185 632.232C734.952 631.729 724.635 631.472 714.244 631.472V639.972ZM744.768 640.722L752.606 644.008C783.816 569.571 823.732 499.089 871.522 434.037L864.672 429.005L857.822 423.972C809.236 490.106 768.657 561.76 736.929 637.435L744.768 640.722ZM864.672 429.005L871.522 434.037L896.923 399.461L890.073 394.429L883.223 389.396L857.822 423.972L864.672 429.005ZM890.073 394.429L896.873 399.529L896.888 399.509L890.088 394.409L883.288 389.309L883.273 389.329L890.073 394.429ZM890.088 394.409L896.909 399.48L1002.17 257.887L995.345 252.816L988.523 247.745L883.266 389.338L890.088 394.409ZM995.345 252.816L1002.17 257.887C1002.13 257.937 1002.1 257.975 1002.08 257.999C1002.07 258.011 1002.06 258.02 1002.06 258.026C1002.05 258.032 1002.05 258.036 1002.05 258.036L995.462 252.667L988.872 247.298C988.797 247.391 988.668 247.55 988.523 247.745L995.345 252.816ZM995.462 252.667L1001.92 258.199L1002.04 258.055L995.585 252.523L989.131 246.992L989.008 247.135L995.462 252.667ZM995.585 252.523L1001.93 258.181L1120.77 124.904L1114.43 119.247L1108.09 113.59L989.241 246.866L995.585 252.523ZM1114.43 119.247L1120.77 124.904C1134.01 110.066 1151.95 100.241 1171.57 97.0825L1170.22 88.6904L1168.87 80.2984C1145.39 84.0774 1123.92 95.8347 1108.09 113.59L1114.43 119.247ZM1170.22 88.6904L1171.57 97.0826L1176.57 96.2799L1175.22 87.8877L1173.87 79.4955L1168.88 80.2982L1170.22 88.6904ZM1175.22 87.8877L1176.57 96.2798C1184.11 95.0661 1191.82 95.2999 1199.27 96.9694L1201.13 88.6748L1202.99 80.3802C1193.42 78.2389 1183.54 77.9391 1173.87 79.4956L1175.22 87.8877ZM1201.13 88.6748L1199.27 96.9694C1221.07 101.851 1238.37 118.408 1244.2 139.971L1252.41 137.752L1260.61 135.533C1253.13 107.877 1230.94 86.641 1202.99 80.3802L1201.13 88.6748ZM1252.41 137.752L1244.2 139.971L1259.44 196.328L1267.65 194.109L1275.85 191.89L1260.61 135.533L1252.41 137.752ZM1267.65 194.109L1259.44 196.329C1262 205.793 1263.67 215.476 1264.42 225.251L1272.9 224.599L1281.37 223.947C1280.54 213.112 1278.69 202.379 1275.85 191.89L1267.65 194.109ZM1272.9 224.599L1264.42 225.251L1271.78 320.887L1280.25 320.235L1288.73 319.583L1281.37 223.947L1272.9 224.599ZM1280.25 320.235L1271.78 320.887C1271.77 320.76 1271.77 320.664 1271.77 320.607L1280.26 320.517L1288.76 320.426C1288.76 320.182 1288.75 319.897 1288.73 319.584L1280.25 320.235ZM1280.26 320.517L1271.77 320.34L1271.76 320.621L1280.26 320.798L1288.76 320.975L1288.76 320.694L1280.26 320.517ZM1280.26 320.798L1271.77 320.326L1267.16 403.333L1275.64 403.805L1284.13 404.277L1288.75 321.27L1280.26 320.798ZM1275.64 403.805L1267.16 403.333C1258.92 551.407 1231.34 697.767 1185.11 838.68L1193.19 841.33L1201.26 843.98C1247.96 701.656 1275.81 553.832 1284.13 404.277L1275.64 403.805ZM1193.19 841.33L1185.11 838.68L1166.57 895.201L1174.64 897.851L1182.72 900.5L1201.26 843.98L1193.19 841.33ZM1174.64 897.851L1166.91 901.369C1185.43 942.104 1195.51 986.013 1195.51 1031.78H1204.01H1212.51C1212.51 983.471 1201.86 937.171 1182.38 894.333L1174.64 897.851ZM1204.01 1031.78H1195.51C1195.51 1136.59 1139.72 1224.73 1049.68 1288.59C959.545 1352.52 835.466 1391.74 700.67 1398.07L701.068 1406.56L701.467 1415.05C838.835 1408.6 966.224 1368.62 1059.52 1302.46C1152.91 1236.22 1212.51 1143.36 1212.51 1031.78H1204.01ZM701.068 1406.56L700.67 1398.07C566.068 1404.38 452.178 1372.55 372.166 1313.19C292.332 1253.95 245.758 1167.02 245.758 1061.59H237.258H228.758C228.758 1172.56 278.007 1264.49 362.037 1326.84C445.889 1389.05 563.905 1421.51 701.467 1415.05L701.068 1406.56ZM237.258 1061.59H245.758C245.758 1002.25 261.688 943.638 290.593 889.975L283.109 885.944L275.626 881.913C245.511 937.823 228.758 999.188 228.758 1061.59H237.258ZM283.109 885.944L291.154 883.2C263.655 802.597 249.618 718.01 249.618 632.835H241.118H232.618C232.618 719.878 246.963 806.32 275.065 888.689L283.109 885.944ZM241.118 632.835H249.618V626.879H241.118H232.618V632.835H241.118ZM241.118 626.879H249.618C249.618 559.564 258 492.511 274.57 427.268L266.331 425.176L258.093 423.083C241.176 489.695 232.618 558.153 232.618 626.879H241.118ZM266.331 425.176L274.57 427.268L317.628 257.723L309.39 255.631L301.151 253.539L258.093 423.083L266.331 425.176ZM309.39 255.631L317.628 257.724C317.588 257.881 317.545 258.015 317.504 258.128L309.516 255.224L301.527 252.319C301.389 252.699 301.261 253.106 301.151 253.538L309.39 255.631ZM309.516 255.224L317.504 258.128L374.475 101.459L366.486 98.5537L358.498 95.6489L301.527 252.319L309.516 255.224ZM366.486 98.5537L374.475 101.459C380.571 84.6935 396.505 73.5332 414.344 73.5332V65.0332V56.5332C389.356 56.5332 367.038 72.1657 358.498 95.6488L366.486 98.5537Z" fill="white"/>
<path d="M573.306 921.053C573.306 1010.43 525.638 1082.89 466.836 1082.89C408.035 1082.89 330.555 1010.43 330.555 921.053C330.555 831.675 408.035 759.219 466.836 759.219C525.638 759.219 573.306 831.675 573.306 921.053Z" fill="#F3F4F6"/>
<path d="M1037.52 925.312C1037.52 998.226 1011.96 1061.59 909.751 1078.63C824.575 1087.15 769.211 1036.56 769.211 963.641C769.211 831.618 842.432 776.254 901.234 776.254C960.036 776.254 1037.52 852.398 1037.52 925.312Z" fill="#F3F4F6"/>
<ellipse cx="496.649" cy="895.5" rx="34.0704" ry="68.1409" fill="#202936"/>
<ellipse cx="871.422" cy="912.535" rx="34.0704" ry="68.1409" fill="#202936"/>
<path d="M68.1406 1160.75C163.708 1122.94 306.287 1117.87 408.013 1126.8" stroke="white" stroke-width="17.0352" stroke-linecap="round"/>
<path d="M87.9688 1308.69C162.318 1233.06 339.017 1203.33 441.888 1190.21" stroke="white" stroke-width="17.0352" stroke-linecap="round"/>
<path d="M193.109 1434.97C204.947 1377.38 363.552 1274.16 424.586 1252.54" stroke="white" stroke-width="17.0352" stroke-linecap="round"/>
<path d="M1091.58 1092.29C1092.09 1092.29 1101.29 1089.49 1125.43 1082.3C1140.6 1077.78 1161.83 1072.01 1173.87 1068.82C1185.91 1065.64 1188.14 1065.35 1213.11 1060.87C1238.07 1056.39 1285.71 1047.73 1312.84 1043.1C1345.08 1037.6 1353.97 1037.07 1369.94 1034.84C1382.46 1033.3 1403.96 1030.92 1415.98 1029.64C1428 1028.35 1429.9 1028.22 1431.86 1028.09" stroke="white" stroke-width="17.0352" stroke-linecap="round"/>
<path d="M1078.31 1163.51C1173.86 1163.51 1262.45 1174.25 1350.86 1214.26" stroke="white" stroke-width="17.0352" stroke-linecap="round"/>
<path d="M1271.75 1346.93C1209.58 1302.74 1118.83 1267.15 1050.29 1244.72" stroke="white" stroke-width="17.0352" stroke-linecap="round"/>
<path d="M652.122 1120.67C655.911 1125.26 662.948 1125.26 666.737 1120.67L699.967 1080.38C705.063 1074.2 700.668 1064.88 692.66 1064.88H626.199C618.191 1064.88 613.796 1074.2 618.892 1080.38L652.122 1120.67Z" fill="#F3F4F6"/>
</svg>
