<svg width="1502" height="1502" viewBox="0 0 1502 1502" fill="none" xmlns="http://www.w3.org/2000/svg">
<circle cx="750.719" cy="750.719" r="750.359" fill="#2E3845"/>
<path d="M205.302 1096.48L205.005 1096.75C203.898 1097.76 202.93 1098.92 202.124 1100.18L201.683 1100.87C199.778 1103.87 199.007 1107.44 199.509 1110.96C199.756 1112.69 200.307 1114.36 201.136 1115.9L205.641 1124.27L212.359 1135.11C214.129 1137.97 216.116 1140.69 218.301 1143.24L226.032 1152.27C228.446 1155.09 231.095 1157.71 233.951 1160.08L246.276 1170.33L262.399 1180.37L274.244 1186.45L292.505 1193.53L310.602 1198.46L328.041 1201.59L345.48 1203.73H365.88L379.205 1203.07L396.151 1200.44L414.083 1196.49L427.573 1192.21L440.405 1186.95L459.818 1176.42L473.473 1167.21L488.938 1153.55L500.289 1140.55L510.983 1124.27L517.399 1111.11L523.815 1092.35L526.941 1077.22L528.751 1060.11V1035.59L528.467 1033.32C527.272 1023.77 522.6 1014.99 515.342 1008.66C513.428 1006.99 511.355 1005.51 509.154 1004.24L489.872 993.126C485.534 990.627 480.926 988.63 476.136 987.175L457.123 981.402C453.661 980.351 450.119 979.587 446.532 979.118L435.643 977.695C429.742 976.923 423.764 976.956 417.872 977.792L410.059 978.9C405.733 979.514 401.479 980.556 397.359 982.013L383.935 986.761C379.044 988.491 374.375 990.793 370.025 993.619L359.824 1000.25C353.811 1004.15 348.477 1009.02 344.033 1014.64L308.676 1059.41C306.236 1062.5 303.524 1065.37 300.572 1067.97L292.901 1074.74C280.879 1085.35 265.396 1091.2 249.362 1091.2H218.887C213.859 1091.2 209.012 1093.08 205.302 1096.48Z" fill="white"/>
<path d="M551.634 952.615L545.641 949.418C543.348 948.195 542.147 945.596 542.703 943.057C542.843 942.414 543.092 941.8 543.439 941.24L554.431 923.495L573.186 895.034L595.889 862.624L624.68 825.115L653.47 789.579L684.728 753.714L737.373 696.627L798.738 635.756L866.354 574.556L916.202 531.782L964.735 491.969L1032.68 438.666L1091.74 395.234L1154.92 350.65L1201.14 319.556L1222.53 305.901L1232.4 299.321L1235.69 297.511C1237.65 296.75 1239.73 296.359 1241.83 296.359H1242.93L1243.22 296.392C1244.99 296.588 1246.72 297.059 1248.34 297.787L1248.55 297.878C1249.95 298.507 1251.25 299.34 1252.42 300.35L1252.51 300.43C1253.79 301.547 1254.88 302.875 1255.71 304.357L1255.78 304.467C1256.31 305.42 1256.74 306.433 1257.04 307.486C1257.39 308.727 1257.57 310.011 1257.57 311.302V311.698C1257.57 312.875 1257.45 314.055 1257.2 315.207C1256.8 317.099 1256.07 318.916 1255.05 320.562L1254.45 321.53L1226.32 364.469L1201.64 401.321L1169.39 446.234L1133.03 497.234L1089.44 553.992L1060.98 590.514L1030.21 628.024L996.157 668.66L960.622 708.308L916.531 756.018L873.099 800.931L836.906 835.644L795.777 873.482L735.893 923.824L684.728 962.65L637.347 994.731L594.824 1020.59C593.776 1021.22 592.434 1020.47 592.434 1019.24V1007.73L591.776 998.186L590.757 990.747C590.343 987.721 589.422 984.787 588.033 982.067C586.806 979.665 585.229 977.458 583.354 975.52L581.247 973.344L567.263 962.321L551.634 952.615Z" fill="white"/>
</svg>
