<svg width="1500" height="1500" viewBox="0 0 1500 1500" fill="none" xmlns="http://www.w3.org/2000/svg">
<rect width="1500" height="1500" rx="170.352" fill="#F3F4F6"/>
<path d="M414.344 65.0332C421.469 65.0333 428.515 66.5283 435.025 69.4219L440.222 71.7314C456.694 79.0526 470.11 91.8722 478.172 107.995L551.562 254.774L551.706 255.098L611.329 404.156L611.338 404.177L630.261 452.213C654.27 513.16 672.107 576.36 683.507 640.862C693.654 640.273 703.902 639.972 714.244 639.972C724.495 639.972 734.673 640.225 744.768 640.722C776.237 565.666 816.484 494.598 864.672 429.005L890.073 394.429L890.088 394.409L995.345 252.816C995.382 252.766 995.422 252.716 995.462 252.667L995.585 252.523L1114.43 119.247C1128.96 102.951 1148.67 92.159 1170.22 88.6904L1175.22 87.8877C1183.83 86.5026 1192.62 86.7694 1201.13 88.6748C1226.01 94.2459 1245.75 113.142 1252.41 137.752L1267.65 194.109C1270.35 204.086 1272.1 214.294 1272.9 224.599L1280.25 320.235C1280.26 320.329 1280.26 320.423 1280.26 320.517L1280.26 320.798L1275.64 403.805C1267.37 552.62 1239.65 699.711 1193.19 841.33L1174.64 897.851C1193.64 939.638 1204.01 984.742 1204.01 1031.78C1204.01 1248.17 973.232 1393.78 701.068 1406.56C428.904 1419.33 237.258 1277.98 237.258 1061.59C237.258 1000.72 253.599 940.731 283.109 885.944C255.309 804.459 241.118 718.944 241.118 632.835V626.879C241.118 558.859 249.588 491.103 266.331 425.176L309.39 255.631C309.425 255.493 309.467 255.357 309.516 255.224L366.486 98.5537C373.804 78.4296 392.93 65.0332 414.344 65.0332Z" fill="#202936"/>
<path d="M414.344 65.0332C421.469 65.0333 428.515 66.5283 435.025 69.4219L440.222 71.7314C456.694 79.0526 470.11 91.8722 478.172 107.995L551.562 254.774L551.706 255.098L611.329 404.156L611.338 404.177L630.261 452.213C654.27 513.16 672.107 576.36 683.507 640.862C693.654 640.273 703.902 639.972 714.244 639.972C724.495 639.972 734.673 640.225 744.768 640.722C776.237 565.666 816.484 494.598 864.672 429.005L890.073 394.429L890.088 394.409L995.345 252.816C995.382 252.766 995.422 252.716 995.462 252.667L995.585 252.523L1114.43 119.247C1128.96 102.951 1148.67 92.159 1170.22 88.6904L1175.22 87.8877C1183.83 86.5026 1192.62 86.7694 1201.13 88.6748C1226.01 94.2459 1245.75 113.142 1252.41 137.752L1267.65 194.109C1270.35 204.086 1272.1 214.294 1272.9 224.599L1280.25 320.235C1280.26 320.329 1280.26 320.423 1280.26 320.517L1280.26 320.798L1275.64 403.805C1267.37 552.62 1239.65 699.711 1193.19 841.33L1174.64 897.851C1193.64 939.638 1204.01 984.742 1204.01 1031.78C1204.01 1248.17 973.232 1393.78 701.068 1406.56C428.904 1419.33 237.258 1277.98 237.258 1061.59C237.258 1000.72 253.599 940.731 283.109 885.944C255.309 804.459 241.118 718.944 241.118 632.835V626.879C241.118 558.859 249.588 491.103 266.331 425.176L309.39 255.631C309.425 255.493 309.467 255.357 309.516 255.224L366.486 98.5537C373.804 78.4296 392.93 65.0332 414.344 65.0332Z" fill="#202936"/>
<path d="M573.306 921.053C573.306 1010.43 525.638 1082.89 466.836 1082.89C408.035 1082.89 330.555 1010.43 330.555 921.053C330.555 831.675 408.035 759.219 466.836 759.219C525.638 759.219 573.306 831.675 573.306 921.053Z" fill="#F3F4F6"/>
<path d="M1037.52 925.312C1037.52 998.226 1011.96 1061.59 909.751 1078.63C824.575 1087.15 769.211 1036.56 769.211 963.641C769.211 831.618 842.432 776.254 901.234 776.254C960.036 776.254 1037.52 852.398 1037.52 925.312Z" fill="#F3F4F6"/>
<ellipse cx="496.649" cy="895.5" rx="34.0704" ry="68.1409" fill="#202936"/>
<ellipse cx="871.422" cy="912.535" rx="34.0704" ry="68.1409" fill="#202936"/>
<path d="M68.1406 1160.75C163.708 1122.94 306.287 1117.87 408.013 1126.8" stroke="#202936" stroke-width="17.0352" stroke-linecap="round"/>
<path d="M87.9688 1308.69C162.318 1233.06 339.017 1203.33 441.888 1190.21" stroke="#202936" stroke-width="17.0352" stroke-linecap="round"/>
<path d="M193.109 1434.97C204.947 1377.38 363.552 1274.16 424.586 1252.54" stroke="#202936" stroke-width="17.0352" stroke-linecap="round"/>
<path d="M1091.58 1092.29C1092.09 1092.29 1101.29 1089.49 1125.43 1082.3C1140.6 1077.78 1161.83 1072.01 1173.87 1068.82C1185.91 1065.64 1188.14 1065.35 1213.11 1060.87C1238.07 1056.39 1285.71 1047.73 1312.84 1043.1C1345.08 1037.6 1353.97 1037.07 1369.94 1034.84C1382.46 1033.3 1403.96 1030.92 1415.98 1029.64C1428 1028.35 1429.9 1028.22 1431.86 1028.09" stroke="#202936" stroke-width="17.0352" stroke-linecap="round"/>
<path d="M1078.31 1163.51C1173.86 1163.51 1262.45 1174.25 1350.86 1214.26" stroke="#202936" stroke-width="17.0352" stroke-linecap="round"/>
<path d="M1271.75 1346.93C1209.58 1302.74 1118.83 1267.15 1050.29 1244.72" stroke="#202936" stroke-width="17.0352" stroke-linecap="round"/>
<path d="M647.653 1126.87C651.06 1131.01 657.388 1131.01 660.795 1126.87L690.676 1090.65C695.258 1085.09 691.306 1076.71 684.105 1076.71H624.343C617.142 1076.71 613.19 1085.09 617.772 1090.65L647.653 1126.87Z" fill="#F3F4F6"/>
</svg>
